# xmcd CD database file
#
# Track frame offsets:
#	187
#	13425
#	25800
#	38550
#	51412
#	64237
#	76500
#	89287
#	102087
#	114562
#	127212
#	139562
#	152312
#	164637
#	176187
#	189187
#	201675
#	214687
#	227475
#	239887
#	252225
#	264587
#	276425
#
# Disc length: 3842 seconds
#
# Revision: 0
# Processed by: cddbd v1.4PL0 Copyright (c) Steve Scherf et al.
# Submitted via: CDex 1.40Release
#
DISCID=4e0f0017
DTITLE=HANK WILLIAMS - THE IMMORTAL HANK WILLIAMS Disc1
DYEAR=1988
DGENRE=Country
TTITLE0=CALLING YOU
TTITLE1=NEVER AGAIN
TTITLE2=WEALTH WON'T SAVE YOUR SOUL
TTITLE3=WHEN GOD COMES AND GATHERS HIS JEWELS
TTITLE4=I DON'T CARE
TTITLE5=MY LOVE FOR YOU
TTITLE6=HONKY TONKIN'
TTITLE7=PAN AMERICAN
TTITLE8=MOVE IT ON OVER
TTITLE9=I SAW THE LIGHT
TTITLE10=LAST NIGHT I HEARD YOU CRYING IN YOUR SLEEP
TTITLE11=SIX MORE MILES
TTITLE12=FLY TROUBLE
TTITLE13=I'M SATISFIED WITH YOU
TTITLE14=ON THE BANK OF THE OLD PONCHARTRAIN
TTITLE15=ROOTIE TOOTIE
TTITLE16=I CAN'T GET YOU OFF MY MIND
TTITLE17=I'M A LONG GONE DADDY
TTITLE18=HONKY TONKIN'
TTITLE19=MY SWEET LOVE AIN'T AROUND
TTITLE20=THE BLUES COME AROUND
TTITLE21=A MANSION ON THE HILL
TTITLE22=I'LL BE A BACHELOR TILL I DIE
EXTD=YEAR: 1988 ID3G: 2
EXTT0=
EXTT1=
EXTT2=
EXTT3=
EXTT4=
EXTT5=
EXTT6=
EXTT7=
EXTT8=
EXTT9=
EXTT10=
EXTT11=
EXTT12=
EXTT13=
EXTT14=
EXTT15=
EXTT16=
EXTT17=
EXTT18=
EXTT19=
EXTT20=
EXTT21=
EXTT22=
PLAYORDER=
